<svg width="15" height="15" viewBox="0 0 15 15" fill="none" xmlns="http://www.w3.org/2000/svg">
<path d="M1.25 13.75H13.75" stroke="#989696" stroke-width="0.872549" stroke-linecap="round" stroke-linejoin="round"/>
<path d="M1.94375 13.75V8.125C1.94375 7.0875 2.875 6.25 4.025 6.25H10.9687C12.1187 6.25 13.05 7.0875 13.05 8.125V13.75" stroke="#989696" stroke-width="0.872549" stroke-linecap="round" stroke-linejoin="round"/>
<path d="M3.475 6.25V4.48125C3.475 3.73125 4.15 3.125 4.9875 3.125H10.0187C10.85 3.125 11.525 3.73125 11.525 4.48125V6.25" stroke="#989696" stroke-width="0.872549" stroke-linecap="round" stroke-linejoin="round"/>
<path d="M2.20625 8.73749L2.4375 8.74374C2.9 8.74999 3.26875 9.12499 3.26875 9.58749V9.79374C3.26875 10.2562 3.64375 10.6375 4.1125 10.6375C4.575 10.6375 4.95625 10.2625 4.95625 9.79374V9.59999C4.95625 9.13749 5.33125 8.75624 5.8 8.75624C6.2625 8.75624 6.64375 9.13124 6.64375 9.59999V9.79374C6.64375 10.2562 7.01875 10.6375 7.4875 10.6375C7.95 10.6375 8.33125 10.2625 8.33125 9.79374V9.59999C8.33125 9.13749 8.70625 8.75624 9.175 8.75624C9.6375 8.75624 10.0187 9.13124 10.0187 9.59999V9.79374C10.0187 10.2562 10.3937 10.6375 10.8625 10.6375C11.325 10.6375 11.7062 10.2625 11.7062 9.79374V9.59999C11.7062 9.13749 12.0812 8.75624 12.55 8.75624H12.8312" stroke="#989696" stroke-width="0.872549" stroke-linecap="round" stroke-linejoin="round"/>
<path d="M5 3.125V1.875" stroke="#989696" stroke-width="0.872549" stroke-linecap="round" stroke-linejoin="round"/>
<path d="M10 3.125V1.875" stroke="#989696" stroke-width="0.872549" stroke-linecap="round" stroke-linejoin="round"/>
<path d="M7.5 3.12499V1.24999" stroke="#989696" stroke-width="0.872549" stroke-linecap="round" stroke-linejoin="round"/>
</svg>
